<svg xmlns="http://www.w3.org/2000/svg" xmlns:xlink="http://www.w3.org/1999/xlink" width="500" zoomAndPan="magnify" viewBox="0 0 375 149.999998" height="200" preserveAspectRatio="xMidYMid meet" version="1.0"><defs><g/><clipPath id="4feac25c27"><path d="M 187.5 101.847656 L 278.671875 101.847656 L 278.671875 147.433594 L 187.5 147.433594 Z M 187.5 101.847656 " clip-rule="nonzero"/></clipPath><clipPath id="ac28a134a3"><path d="M 187.5 101.847656 L 255.878906 101.847656 L 278.671875 124.640625 L 255.878906 147.433594 L 187.5 147.433594 L 210.292969 124.640625 Z M 187.5 101.847656 " clip-rule="nonzero"/></clipPath></defs><rect x="-37.5" width="450" fill="#ffffff" y="-15" height="179.999997" fill-opacity="1"/><rect x="-37.5" width="450" fill="#ffff" y="-15" height="179.999997" fill-opacity="1"/><g clip-path="url(#4feac25c27)"><g clip-path="url(#ac28a134a3)"><path fill="#8c52ff" d="M 187.5 101.847656 L 278.671875 101.847656 L 278.671875 147.433594 L 187.5 147.433594 Z M 187.5 101.847656 " fill-opacity="1" fill-rule="nonzero"/></g></g><g fill="#000000" fill-opacity="1"><g transform="translate(3.214061, 69.115439)"><g><path d="M 49.640625 -30.265625 C 52.972656 -29.210938 55.578125 -27.453125 57.453125 -24.984375 C 59.335938 -22.515625 60.28125 -19.484375 60.28125 -15.890625 C 60.28125 -10.785156 58.296875 -6.859375 54.328125 -4.109375 C 50.367188 -1.367188 44.59375 0 37 0 L 6.90625 0 L 6.90625 -58.203125 L 35.34375 -58.203125 C 42.4375 -58.203125 47.878906 -56.84375 51.671875 -54.125 C 55.472656 -51.414062 57.375 -47.734375 57.375 -43.078125 C 57.375 -40.242188 56.691406 -37.71875 55.328125 -35.5 C 53.972656 -33.289062 52.078125 -31.546875 49.640625 -30.265625 Z M 20.296875 -48.0625 L 20.296875 -34.34375 L 33.671875 -34.34375 C 37.003906 -34.34375 39.53125 -34.925781 41.25 -36.09375 C 42.96875 -37.257812 43.828125 -38.976562 43.828125 -41.25 C 43.828125 -43.519531 42.96875 -45.222656 41.25 -46.359375 C 39.53125 -47.492188 37.003906 -48.0625 33.671875 -48.0625 Z M 36 -10.140625 C 39.550781 -10.140625 42.226562 -10.722656 44.03125 -11.890625 C 45.832031 -13.054688 46.734375 -14.859375 46.734375 -17.296875 C 46.734375 -22.117188 43.15625 -24.53125 36 -24.53125 L 20.296875 -24.53125 L 20.296875 -10.140625 Z M 36 -10.140625 "/></g></g></g><g fill="#000000" fill-opacity="1"><g transform="translate(71.061446, 69.115439)"><g><path d="M 5.984375 -44.734375 L 18.953125 -44.734375 L 18.953125 0 L 5.984375 0 Z M 12.46875 -50.96875 C 10.09375 -50.96875 8.15625 -51.660156 6.65625 -53.046875 C 5.15625 -54.429688 4.40625 -56.148438 4.40625 -58.203125 C 4.40625 -60.253906 5.15625 -61.972656 6.65625 -63.359375 C 8.15625 -64.742188 10.09375 -65.4375 12.46875 -65.4375 C 14.851562 -65.4375 16.796875 -64.769531 18.296875 -63.4375 C 19.796875 -62.113281 20.546875 -60.453125 20.546875 -58.453125 C 20.546875 -56.296875 19.796875 -54.507812 18.296875 -53.09375 C 16.796875 -51.675781 14.851562 -50.96875 12.46875 -50.96875 Z M 12.46875 -50.96875 "/></g></g></g><g fill="#000000" fill-opacity="1"><g transform="translate(100.329748, 69.115439)"><g><path d="M 27.28125 0.671875 C 22.5625 0.671875 18.332031 -0.3125 14.59375 -2.28125 C 10.851562 -4.25 7.925781 -6.976562 5.8125 -10.46875 C 3.707031 -13.96875 2.65625 -17.9375 2.65625 -22.375 C 2.65625 -26.800781 3.707031 -30.757812 5.8125 -34.25 C 7.925781 -37.75 10.851562 -40.484375 14.59375 -42.453125 C 18.332031 -44.421875 22.5625 -45.40625 27.28125 -45.40625 C 31.988281 -45.40625 36.195312 -44.421875 39.90625 -42.453125 C 43.625 -40.484375 46.535156 -37.75 48.640625 -34.25 C 50.753906 -30.757812 51.8125 -26.800781 51.8125 -22.375 C 51.8125 -17.9375 50.753906 -13.96875 48.640625 -10.46875 C 46.535156 -6.976562 43.625 -4.25 39.90625 -2.28125 C 36.195312 -0.3125 31.988281 0.671875 27.28125 0.671875 Z M 27.28125 -9.984375 C 30.601562 -9.984375 33.332031 -11.101562 35.46875 -13.34375 C 37.601562 -15.59375 38.671875 -18.601562 38.671875 -22.375 C 38.671875 -26.144531 37.601562 -29.148438 35.46875 -31.390625 C 33.332031 -33.640625 30.601562 -34.765625 27.28125 -34.765625 C 23.945312 -34.765625 21.195312 -33.640625 19.03125 -31.390625 C 16.875 -29.148438 15.796875 -26.144531 15.796875 -22.375 C 15.796875 -18.601562 16.875 -15.59375 19.03125 -13.34375 C 21.195312 -11.101562 23.945312 -9.984375 27.28125 -9.984375 Z M 27.28125 -9.984375 "/></g></g></g><g fill="#000000" fill-opacity="1"><g transform="translate(159.031235, 69.115439)"><g><path d="M 5.984375 -61.703125 L 18.953125 -61.703125 L 18.953125 0 L 5.984375 0 Z M 5.984375 -61.703125 "/></g></g></g><g fill="#000000" fill-opacity="1"><g transform="translate(188.299533, 69.115439)"><g><path d="M 5.984375 -44.734375 L 18.953125 -44.734375 L 18.953125 0 L 5.984375 0 Z M 12.46875 -50.96875 C 10.09375 -50.96875 8.15625 -51.660156 6.65625 -53.046875 C 5.15625 -54.429688 4.40625 -56.148438 4.40625 -58.203125 C 4.40625 -60.253906 5.15625 -61.972656 6.65625 -63.359375 C 8.15625 -64.742188 10.09375 -65.4375 12.46875 -65.4375 C 14.851562 -65.4375 16.796875 -64.769531 18.296875 -63.4375 C 19.796875 -62.113281 20.546875 -60.453125 20.546875 -58.453125 C 20.546875 -56.296875 19.796875 -54.507812 18.296875 -53.09375 C 16.796875 -51.675781 14.851562 -50.96875 12.46875 -50.96875 Z M 12.46875 -50.96875 "/></g></g></g><g fill="#000000" fill-opacity="1"><g transform="translate(217.567831, 69.115439)"><g><path d="M 32.4375 -45.40625 C 36.59375 -45.40625 40.375 -44.445312 43.78125 -42.53125 C 47.1875 -40.625 49.859375 -37.9375 51.796875 -34.46875 C 53.742188 -31 54.71875 -26.96875 54.71875 -22.375 C 54.71875 -17.769531 53.742188 -13.734375 51.796875 -10.265625 C 49.859375 -6.804688 47.1875 -4.117188 43.78125 -2.203125 C 40.375 -0.285156 36.59375 0.671875 32.4375 0.671875 C 26.28125 0.671875 21.59375 -1.269531 18.375 -5.15625 L 18.375 0 L 5.984375 0 L 5.984375 -61.703125 L 18.953125 -61.703125 L 18.953125 -40 C 22.222656 -43.601562 26.71875 -45.40625 32.4375 -45.40625 Z M 30.1875 -9.984375 C 33.507812 -9.984375 36.238281 -11.101562 38.375 -13.34375 C 40.507812 -15.59375 41.578125 -18.601562 41.578125 -22.375 C 41.578125 -26.144531 40.507812 -29.148438 38.375 -31.390625 C 36.238281 -33.640625 33.507812 -34.765625 30.1875 -34.765625 C 26.863281 -34.765625 24.132812 -33.640625 22 -31.390625 C 19.863281 -29.148438 18.796875 -26.144531 18.796875 -22.375 C 18.796875 -18.601562 19.863281 -15.59375 22 -13.34375 C 24.132812 -11.101562 26.863281 -9.984375 30.1875 -9.984375 Z M 30.1875 -9.984375 "/></g></g></g><g fill="#000000" fill-opacity="1"><g transform="translate(279.179369, 69.115439)"><g><path d="M 49.8125 -22.203125 C 49.8125 -22.035156 49.726562 -20.867188 49.5625 -18.703125 L 15.71875 -18.703125 C 16.320312 -15.929688 17.757812 -13.742188 20.03125 -12.140625 C 22.3125 -10.535156 25.140625 -9.734375 28.515625 -9.734375 C 30.847656 -9.734375 32.914062 -10.078125 34.71875 -10.765625 C 36.519531 -11.460938 38.195312 -12.554688 39.75 -14.046875 L 46.65625 -6.5625 C 42.4375 -1.738281 36.28125 0.671875 28.1875 0.671875 C 23.144531 0.671875 18.679688 -0.3125 14.796875 -2.28125 C 10.921875 -4.25 7.925781 -6.976562 5.8125 -10.46875 C 3.707031 -13.96875 2.65625 -17.9375 2.65625 -22.375 C 2.65625 -26.75 3.691406 -30.695312 5.765625 -34.21875 C 7.847656 -37.738281 10.707031 -40.484375 14.34375 -42.453125 C 17.976562 -44.421875 22.039062 -45.40625 26.53125 -45.40625 C 30.90625 -45.40625 34.863281 -44.460938 38.40625 -42.578125 C 41.957031 -40.691406 44.742188 -37.988281 46.765625 -34.46875 C 48.796875 -30.945312 49.8125 -26.859375 49.8125 -22.203125 Z M 26.609375 -35.59375 C 23.671875 -35.59375 21.203125 -34.757812 19.203125 -33.09375 C 17.210938 -31.425781 15.992188 -29.15625 15.546875 -26.28125 L 37.59375 -26.28125 C 37.144531 -29.101562 35.921875 -31.359375 33.921875 -33.046875 C 31.929688 -34.742188 29.492188 -35.59375 26.609375 -35.59375 Z M 26.609375 -35.59375 "/></g></g></g><g fill="#000000" fill-opacity="1"><g transform="translate(335.885377, 69.115439)"><g><path d="M 18.375 -38.828125 C 19.925781 -40.992188 22.019531 -42.628906 24.65625 -43.734375 C 27.289062 -44.847656 30.328125 -45.40625 33.765625 -45.40625 L 33.765625 -33.421875 C 32.316406 -33.535156 31.34375 -33.59375 30.84375 -33.59375 C 27.132812 -33.59375 24.222656 -32.550781 22.109375 -30.46875 C 20.003906 -28.394531 18.953125 -25.28125 18.953125 -21.125 L 18.953125 0 L 5.984375 0 L 5.984375 -44.734375 L 18.375 -44.734375 Z M 18.375 -38.828125 "/></g></g></g><g fill="#000000" fill-opacity="1"><g transform="translate(6.885126, 145.168021)"><g><path d="M 23.21875 -42.09375 C 26.945312 -42.09375 30.179688 -41.472656 32.921875 -40.234375 C 35.671875 -38.992188 37.785156 -37.226562 39.265625 -34.9375 C 40.753906 -32.65625 41.5 -29.953125 41.5 -26.828125 C 41.5 -23.734375 40.753906 -21.035156 39.265625 -18.734375 C 37.785156 -16.429688 35.671875 -14.664062 32.921875 -13.4375 C 30.179688 -12.21875 26.945312 -11.609375 23.21875 -11.609375 L 14.734375 -11.609375 L 14.734375 0 L 4.984375 0 L 4.984375 -42.09375 Z M 22.671875 -19.546875 C 25.597656 -19.546875 27.820312 -20.175781 29.34375 -21.4375 C 30.875 -22.695312 31.640625 -24.492188 31.640625 -26.828125 C 31.640625 -29.191406 30.875 -31.003906 29.34375 -32.265625 C 27.820312 -33.523438 25.597656 -34.15625 22.671875 -34.15625 L 14.734375 -34.15625 L 14.734375 -19.546875 Z M 22.671875 -19.546875 "/></g></g></g><g fill="#000000" fill-opacity="1"><g transform="translate(63.294984, 145.168021)"><g><path d="M 31.8125 0 L 23.703125 -11.734375 L 14.734375 -11.734375 L 14.734375 0 L 4.984375 0 L 4.984375 -42.09375 L 23.21875 -42.09375 C 26.945312 -42.09375 30.179688 -41.472656 32.921875 -40.234375 C 35.671875 -38.992188 37.785156 -37.226562 39.265625 -34.9375 C 40.753906 -32.65625 41.5 -29.953125 41.5 -26.828125 C 41.5 -23.691406 40.742188 -20.988281 39.234375 -18.71875 C 37.734375 -16.457031 35.601562 -14.726562 32.84375 -13.53125 L 42.28125 0 Z M 31.640625 -26.828125 C 31.640625 -29.191406 30.875 -31.003906 29.34375 -32.265625 C 27.820312 -33.523438 25.597656 -34.15625 22.671875 -34.15625 L 14.734375 -34.15625 L 14.734375 -19.484375 L 22.671875 -19.484375 C 25.597656 -19.484375 27.820312 -20.125 29.34375 -21.40625 C 30.875 -22.6875 31.640625 -24.492188 31.640625 -26.828125 Z M 31.640625 -26.828125 "/></g></g></g><g fill="#000000" fill-opacity="1"><g transform="translate(119.885244, 145.168021)"><g><path d="M 25.375 0.71875 C 21.007812 0.71875 17.070312 -0.222656 13.5625 -2.109375 C 10.050781 -3.992188 7.300781 -6.585938 5.3125 -9.890625 C 3.332031 -13.203125 2.34375 -16.921875 2.34375 -21.046875 C 2.34375 -25.179688 3.332031 -28.898438 5.3125 -32.203125 C 7.300781 -35.515625 10.050781 -38.109375 13.5625 -39.984375 C 17.070312 -41.867188 21.007812 -42.8125 25.375 -42.8125 C 29.75 -42.8125 33.679688 -41.867188 37.171875 -39.984375 C 40.660156 -38.109375 43.40625 -35.515625 45.40625 -32.203125 C 47.40625 -28.898438 48.40625 -25.179688 48.40625 -21.046875 C 48.40625 -16.921875 47.40625 -13.203125 45.40625 -9.890625 C 43.40625 -6.585938 40.660156 -3.992188 37.171875 -2.109375 C 33.679688 -0.222656 29.75 0.71875 25.375 0.71875 Z M 25.375 -7.578125 C 27.863281 -7.578125 30.109375 -8.144531 32.109375 -9.28125 C 34.117188 -10.425781 35.691406 -12.019531 36.828125 -14.0625 C 37.972656 -16.113281 38.546875 -18.441406 38.546875 -21.046875 C 38.546875 -23.648438 37.972656 -25.972656 36.828125 -28.015625 C 35.691406 -30.066406 34.117188 -31.660156 32.109375 -32.796875 C 30.109375 -33.941406 27.863281 -34.515625 25.375 -34.515625 C 22.894531 -34.515625 20.648438 -33.941406 18.640625 -32.796875 C 16.640625 -31.660156 15.066406 -30.066406 13.921875 -28.015625 C 12.773438 -25.972656 12.203125 -23.648438 12.203125 -21.046875 C 12.203125 -18.441406 12.773438 -16.113281 13.921875 -14.0625 C 15.066406 -12.019531 16.640625 -10.425781 18.640625 -9.28125 C 20.648438 -8.144531 22.894531 -7.578125 25.375 -7.578125 Z M 25.375 -7.578125 "/></g></g></g></svg>